<svg width="16.000000" height="16.000000" viewBox="0 0 16 16" fill="none" xmlns="http://www.w3.org/2000/svg" xmlns:xlink="http://www.w3.org/1999/xlink">
	<desc>
			Created with Pixso.
	</desc>
	<defs/>
	<path id="Vector" d="M7.33301 1.33398C5.63477 1.33398 4.07324 1.85938 2.9209 2.74023C1.76855 3.62109 1 4.88672 1 6.33398C1 7.01758 1.17285 7.66602 1.47949 8.25195C1.47949 8.27734 1.47852 8.31445 1.47363 8.36523C1.45996 8.51367 1.4248 8.71289 1.37012 8.95117C1.26074 9.42188 1.09277 9.9668 0.951172 10.3984C0.682617 11.2129 1.49316 11.9766 2.28906 11.666C2.74805 11.4883 3.35156 11.2656 3.88867 11.1094C4.1582 11.0312 4.39551 10.9727 4.58105 10.9434C4.7041 10.9238 4.77051 10.9238 4.79492 10.9238C4.80176 10.9238 4.80566 10.9238 4.80566 10.9219C5.58203 11.1875 6.4375 11.334 7.33301 11.334C9.03125 11.334 10.5938 10.8086 11.7451 9.92773C12.8975 9.04688 13.666 7.78125 13.666 6.33398C13.666 4.88672 12.8975 3.62109 11.7451 2.74023C10.5938 1.85938 9.03125 1.33398 7.33301 1.33398ZM2.33301 6.33398C2.33301 5.38867 2.83203 4.48633 3.73145 3.79883C4.62988 3.11133 5.90137 2.66797 7.33301 2.66797C8.76465 2.66797 10.0361 3.11133 10.9346 3.79883C11.834 4.48633 12.333 5.38867 12.333 6.33398C12.333 7.2793 11.834 8.18164 10.9346 8.86914C10.0361 9.55664 8.76465 10 7.33301 10C6.57422 10 5.8584 9.875 5.21777 9.6543C4.93262 9.55469 4.60156 9.5918 4.37305 9.62695C4.10742 9.66797 3.80957 9.74414 3.51465 9.83008C3.15039 9.93555 2.76465 10.0664 2.41309 10.1953C2.50586 9.88672 2.59668 9.55859 2.66895 9.25195C2.72949 8.98828 2.78027 8.72266 2.80176 8.48633C2.8125 8.36914 2.81738 8.24219 2.80762 8.12109C2.79883 8.00781 2.77344 7.8418 2.68555 7.68164C2.45605 7.25977 2.33301 6.80469 2.33301 6.33398ZM13.9619 8.9043C14.2949 8.32812 14.5205 7.70312 14.6152 7.04492C15.0693 7.70898 15.333 8.48438 15.333 9.33398C15.333 10.0879 15.1172 10.7949 14.7422 11.416C14.7393 11.4297 14.7354 11.457 14.7314 11.5C14.7236 11.6016 14.7246 11.7422 14.7363 11.9121C14.7598 12.25 14.8184 12.6426 14.875 12.9629C15.0059 13.707 14.2949 14.3457 13.5615 14.1133C13.2158 14.0039 12.7715 13.873 12.377 13.7832C12.1787 13.7383 12.0068 13.707 11.873 13.6934C11.7881 13.6855 11.7422 13.6855 11.7256 13.6855L11.7256 13.6855L11.7197 13.6855C11.0811 13.8906 10.3887 14 9.66602 14C7.81836 14 6.08496 13.25 5.03418 12.0332C5.75684 12.2285 6.53027 12.334 7.33301 12.334C7.47168 12.334 7.60938 12.332 7.74512 12.3242C8.31348 12.543 8.96094 12.668 9.66602 12.668C10.2598 12.668 10.8223 12.5762 11.334 12.4102C11.5674 12.334 11.8291 12.3496 12.0098 12.3672C12.2178 12.3887 12.4463 12.4316 12.6699 12.4824C12.9395 12.543 13.2217 12.6191 13.4814 12.6953C13.4492 12.4688 13.4219 12.2305 13.4062 12.002C13.3926 11.7988 13.3877 11.5879 13.4023 11.3945C13.416 11.2266 13.4502 10.9707 13.585 10.752C13.8545 10.3164 14 9.83594 14 9.33398C14 9.18945 13.9873 9.04688 13.9619 8.9043Z" fill="#787A80" fill-opacity="1.000000" fill-rule="evenodd"/>
</svg>
