<svg width="24.000000" height="24.000000" viewBox="0 0 24 24" fill="none" xmlns="http://www.w3.org/2000/svg" xmlns:xlink="http://www.w3.org/1999/xlink">
	<desc>
			Created with Pixso.
	</desc>
	<defs/>
	<g opacity="0.600000">
		<path id="Vector" d="M17.5625 1.00391L14.7852 1C11.665 1 9.64941 3.125 9.64941 6.41406L9.64941 8.91016L6.85645 8.91016C6.61523 8.91016 6.41992 9.11133 6.41992 9.35938L6.41992 12.9766C6.41992 13.2246 6.61523 13.4258 6.85645 13.4258L9.64941 13.4258L9.64941 22.5508C9.64941 22.7988 9.84473 23 10.0859 23L13.7295 23C13.9707 23 14.166 22.7988 14.166 22.5508L14.166 13.4258L17.4307 13.4258C17.6719 13.4258 17.8672 13.2246 17.8672 12.9766L17.8691 9.35938C17.8691 9.24023 17.8223 9.12695 17.7412 9.04297C17.6592 8.95703 17.5479 8.91016 17.4316 8.91016L14.166 8.91016L14.166 6.79492C14.166 5.77734 14.4014 5.26172 15.6914 5.26172L17.5625 5.25977C17.8037 5.25977 17.999 5.05859 17.999 4.8125L17.999 1.45312C17.999 1.20508 17.8037 1.00586 17.5625 1.00391Z" fill="#FFFFFF" fill-opacity="1.000000" fill-rule="nonzero"/>
	</g>
</svg>
