<svg width="16.000000" height="16.000000" viewBox="0 0 16 16" fill="none" xmlns="http://www.w3.org/2000/svg" xmlns:xlink="http://www.w3.org/1999/xlink">
	<desc>
			Created with Pixso.
	</desc>
	<defs/>
	<path id="Vector (Stroke)" d="M7.99902 13.2715C4.93359 11.5254 3.22363 9.78906 2.39648 8.2832C1.5498 6.74219 1.62402 5.44336 2.09375 4.52344C3.05859 2.62891 5.80371 2.02344 7.47656 4.13867L7.99902 4.80078L8.52246 4.13867C10.1953 2.02344 12.9404 2.62891 13.9053 4.52344C14.375 5.44336 14.4492 6.74219 13.6025 8.2832C12.7754 9.78906 11.0654 11.5254 7.99902 13.2715ZM7.99902 2.73633C5.64648 0.501953 2.17578 1.42578 0.905273 3.91797C0.208008 5.28516 0.199219 7.05273 1.22754 8.92578C2.24707 10.7812 4.2793 12.7422 7.67676 14.6191L7.99902 14.7969L8.32129 14.6191C11.7188 12.7422 13.752 10.7812 14.7715 8.92578C15.7998 7.05273 15.79 5.28516 15.0938 3.91797C13.8232 1.42578 10.3525 0.501953 7.99902 2.73633Z" fill="#FF5A30" fill-opacity="1.000000" fill-rule="evenodd"/>
</svg>
