<svg width="52.000000" height="52.000000" viewBox="0 0 52 52" fill="none" xmlns="http://www.w3.org/2000/svg" xmlns:xlink="http://www.w3.org/1999/xlink">
	<desc>
			Created with Pixso.
	</desc>
	<defs>
		<clipPath id="clip3_1429">
			<rect id="ic-painting" width="52.000000" height="52.000000" fill="white" fill-opacity="0"/>
		</clipPath>
	</defs>
	<g clip-path="url(#clip3_1429)">
		<path id="Vector" d="M42.8594 4.57031C42.8594 2.05078 40.8086 0 38.2891 0L7.82031 0C5.30078 0 3.25 2.05078 3.25 4.57031L3.25 13.7109C3.25 16.2305 5.30078 18.2812 7.82031 18.2812L38.2891 18.2812C40.8086 18.2812 42.8594 16.2305 42.8594 13.7109L42.8594 12.1875L44.3828 12.1875C45.2227 12.1875 45.9062 12.8711 45.9062 13.7109L45.9062 19.8047C45.9062 20.6445 45.2227 21.3281 44.3828 21.3281L26.1016 21.3281C23.582 21.3281 21.5312 23.3789 21.5312 25.8984L21.5312 30.4688L20.0078 30.4688C19.166 30.4688 18.4844 31.1504 18.4844 31.9922L18.4844 38.0039L16.9609 44.1953C15.9707 48.1582 18.9639 52 23.0547 52C27.1475 52 30.1377 48.1523 29.1504 44.2012L27.625 38.0039L27.625 31.9922C27.625 31.1504 26.9434 30.4688 26.1016 30.4688L24.5781 30.4688L24.5781 25.8984C24.5781 25.0586 25.2617 24.375 26.1016 24.375L44.3828 24.375C46.9023 24.375 48.9531 22.3242 48.9531 19.8047L48.9531 13.7109C48.9531 11.1914 46.9023 9.14062 44.3828 9.14062L42.8594 9.14062L42.8594 4.57031ZM24.5781 33.5156L24.5781 36.6641L21.5312 36.6641L21.5312 33.5156L24.5781 33.5156ZM23.0547 48.9531C20.9561 48.9531 19.4043 46.9824 19.918 44.9297L21.2021 39.7109L24.9072 39.7109L26.1924 44.9336C26.7021 46.9746 25.1611 48.9531 23.0547 48.9531ZM7.82031 3.04688L38.2891 3.04688C39.1289 3.04688 39.8125 3.73047 39.8125 4.57031L39.8125 6.09375L35.2422 6.09375C33.7617 6.09375 31.8682 6.64844 29.6758 7.29102C26.7148 8.1582 23.3594 9.14062 20.0078 9.14062C16.7412 9.14062 14.4385 8.18555 12.4062 7.3457C10.8525 6.70117 9.38574 6.09375 7.82031 6.09375L6.29688 6.09375L6.29688 4.57031C6.29688 3.73047 6.98047 3.04688 7.82031 3.04688ZM39.8125 13.7109C39.8125 14.5508 39.1289 15.2344 38.2891 15.2344L7.82031 15.2344C6.98047 15.2344 6.29688 14.5508 6.29688 13.7109L6.29688 9.14062L7.82031 9.14062C8.7793 9.14062 9.86523 9.58984 11.2402 10.1602C13.4209 11.0625 16.1348 12.1875 20.0078 12.1875C23.7959 12.1875 27.5312 11.0938 30.5322 10.2148C32.418 9.66211 34.1992 9.14062 35.2422 9.14062L39.8125 9.14062L39.8125 13.7109Z" fill="#FF5A30" fill-opacity="1.000000" fill-rule="nonzero"/>
	</g>
</svg>
