<svg width="52.000000" height="52.000000" viewBox="0 0 52 52" fill="none" xmlns="http://www.w3.org/2000/svg" xmlns:xlink="http://www.w3.org/1999/xlink">
	<desc>
			Created with Pixso.
	</desc>
	<defs>
		<clipPath id="clip3_1433">
			<rect id="ic-plan" width="52.000000" height="52.000000" fill="white" fill-opacity="0"/>
		</clipPath>
	</defs>
	<g clip-path="url(#clip3_1433)">
		<path id="Vector" d="M45.9062 3.14844C43.6553 3.14844 41.6855 4.375 40.6299 6.19531L1.52344 6.19531C0.681641 6.19531 0 6.87695 0 7.71875L0 47.3281C0 48.1699 0.681641 48.8516 1.52344 48.8516L45.9062 48.8516C49.2666 48.8516 52 46.1172 52 42.7578L52 9.24219C52 5.88281 49.2666 3.14844 45.9062 3.14844ZM45.9062 45.8047C45.3105 45.8047 3.60156 45.8047 3.04688 45.8047L3.04688 9.24219L39.8125 9.24219L39.8125 42.7578C39.8125 43.5996 40.4941 44.2812 41.3359 44.2812C42.1777 44.2812 42.8594 43.5996 42.8594 42.7578C42.8594 41.0781 44.2266 39.7109 45.9062 39.7109C47.5859 39.7109 48.9531 41.0781 48.9531 42.7578C48.9531 44.4375 47.5859 45.8047 45.9062 45.8047ZM48.9531 37.4824C48.0566 36.9629 47.0156 36.6641 45.9062 36.6641C44.7969 36.6641 43.7559 36.9629 42.8594 37.4824L42.8594 9.24219C42.8594 7.5625 44.2266 6.19531 45.9062 6.19531C47.5859 6.19531 48.9531 7.5625 48.9531 9.24219L48.9531 37.4824Z" fill="#FF5A30" fill-opacity="1.000000" fill-rule="nonzero"/>
		<path id="Vector" d="M35.1406 12.2891L7.71875 12.2891C6.87695 12.2891 6.19531 12.9707 6.19531 13.8125L6.19531 41.2344C6.19531 42.0762 6.87695 42.7578 7.71875 42.7578L22.9531 42.7578C23.3574 42.7578 23.7441 42.5977 24.0303 42.3125C24.3164 42.0254 24.4766 41.6387 24.4766 41.2344L24.4766 38.1875C24.4766 36.2012 25.75 34.5078 27.5234 33.8789L27.5234 41.2344C27.5234 42.0762 28.2051 42.7578 29.0469 42.7578L35.1406 42.7578C35.9824 42.7578 36.6641 42.0762 36.6641 41.2344L36.6641 13.8125C36.6641 12.9707 35.9824 12.2891 35.1406 12.2891ZM33.6172 39.7109L30.5703 39.7109L30.5703 32.0938C30.5703 31.252 29.8887 30.5703 29.0469 30.5703C24.8467 30.5703 21.4297 33.9883 21.4297 38.1875L21.4297 39.7109L9.24219 39.7109L9.24219 30.5703L15.3359 30.5703L15.3359 35.1406C15.3359 35.9824 16.0176 36.6641 16.8594 36.6641C17.7012 36.6641 18.3828 35.9824 18.3828 35.1406L18.3828 29.0469C18.3828 28.2051 17.7012 27.5234 16.8594 27.5234L9.24219 27.5234L9.24219 15.3359L18.3828 15.3359L18.3828 21.4297L13.8125 21.4297C12.9707 21.4297 12.2891 22.1113 12.2891 22.9531C12.2891 23.7949 12.9707 24.4766 13.8125 24.4766L19.9062 24.4766L26 24.4766C26.8418 24.4766 27.5234 23.7949 27.5234 22.9531C27.5234 22.1113 26.8418 21.4297 26 21.4297L21.4297 21.4297L21.4297 15.3359L33.6172 15.3359L33.6172 39.7109Z" fill="#FF5A30" fill-opacity="1.000000" fill-rule="nonzero"/>
	</g>
</svg>
