<svg width="24.000000" height="24.000000" viewBox="0 0 24 24" fill="none" xmlns="http://www.w3.org/2000/svg" xmlns:xlink="http://www.w3.org/1999/xlink">
	<desc>
			Created with Pixso.
	</desc>
	<defs/>
	<g opacity="0.600000">
		<path id="Vector" d="M22.5 5.77148C21.7275 6.09961 20.8975 6.32227 20.0264 6.42188C20.916 5.91211 21.5977 5.10352 21.9199 4.14062C21.085 4.61328 20.1641 4.95703 19.1826 5.14258C18.3965 4.33984 17.2783 3.83984 16.0381 3.83984C13.6592 3.83984 11.7305 5.6875 11.7305 7.96289C11.7305 8.28711 11.7686 8.60156 11.8418 8.9043C8.26172 8.73047 5.08789 7.08984 2.96289 4.59375C2.5918 5.20117 2.38086 5.91016 2.38086 6.66602C2.38086 8.09766 3.1416 9.36133 4.29688 10.0996C3.59082 10.0762 2.92676 9.89062 2.34473 9.58203L2.34473 9.63281C2.34473 11.6309 3.83008 13.2988 5.7998 13.6777C5.43945 13.7715 5.05859 13.8223 4.66504 13.8223C4.38672 13.8223 4.11816 13.7969 3.85449 13.7461C4.40234 15.3867 5.99316 16.5781 7.87793 16.6113C6.4043 17.7168 4.5459 18.373 2.52734 18.373C2.17969 18.373 1.83691 18.3535 1.5 18.3164C3.40625 19.4902 5.66992 20.1738 8.10352 20.1738C16.0283 20.1738 20.3594 13.8887 20.3594 8.4375L20.3457 7.9043C21.1914 7.32617 21.9238 6.59961 22.5 5.77148Z" fill="#FFFFFF" fill-opacity="1.000000" fill-rule="nonzero"/>
	</g>
</svg>
