<svg width="24.000000" height="24.000000" viewBox="0 0 24 24" fill="none" xmlns="http://www.w3.org/2000/svg" xmlns:xlink="http://www.w3.org/1999/xlink">
	<desc>
			Created with Pixso.
	</desc>
	<defs/>
	<g opacity="0.600000">
		<path id="WhatsApp" d="M22 11.7422C22 17.123 17.6045 21.4844 12.1816 21.4844C10.46 21.4844 8.84277 21.0449 7.43555 20.2734L2 22L3.77246 16.7734C2.87793 15.3047 2.36328 13.584 2.36328 11.7422C2.36328 6.36133 6.75879 2 12.1816 2C17.6055 2 22 6.36133 22 11.7422ZM12.1816 3.55078C7.62988 3.55078 3.92676 7.22656 3.92676 11.7422C3.92676 13.5352 4.51172 15.1953 5.5 16.5449L4.46777 19.5859L7.64062 18.5781C8.94336 19.4336 10.5049 19.9336 12.1816 19.9336C16.7334 19.9336 20.4365 16.2598 20.4365 11.7422C20.4365 7.22656 16.7334 3.55078 12.1816 3.55078ZM17.1396 13.9863C17.0791 13.8867 16.9189 13.8262 16.6787 13.707C16.4375 13.5879 15.2539 13.0098 15.0342 12.9316C14.8135 12.8516 14.6523 12.8105 14.4922 13.0508C14.332 13.2891 13.8711 13.8262 13.7305 13.9863C13.5898 14.1465 13.4492 14.166 13.208 14.0469C12.9678 13.9277 12.1924 13.6738 11.2734 12.8613C10.5576 12.2285 10.0752 11.4473 9.93457 11.207C9.79395 10.9688 9.91992 10.8398 10.04 10.7207C10.1484 10.6133 10.2812 10.4414 10.4014 10.3027C10.5215 10.1641 10.5615 10.0645 10.6416 9.9043C10.7227 9.74414 10.6816 9.60547 10.6211 9.48633C10.5615 9.36719 10.0801 8.19141 9.87891 7.71289C9.67871 7.23438 9.47852 7.31445 9.33789 7.31445C9.19824 7.31445 9.03711 7.29492 8.87695 7.29492C8.71582 7.29492 8.45508 7.35547 8.23438 7.59375C8.01465 7.83203 7.39258 8.41016 7.39258 9.58594C7.39258 10.7598 8.25488 11.8965 8.375 12.0547C8.49512 12.2148 10.04 14.7031 12.4863 15.6602C14.9336 16.6152 14.9336 16.2969 15.375 16.2578C15.8154 16.2168 16.7979 15.6797 17 15.1211C17.1992 14.5645 17.1992 14.0859 17.1396 13.9863Z" fill="#FFFFFF" fill-opacity="1.000000" fill-rule="nonzero"/>
	</g>
</svg>
