<svg width="142.000000" height="24.000000" viewBox="0 0 142 24" fill="none" xmlns="http://www.w3.org/2000/svg" xmlns:xlink="http://www.w3.org/1999/xlink">
	<desc>
			Created with Pixso.
	</desc>
	<defs>
		<clipPath id="clip3_2177">
			<rect id="logo" width="142.000000" height="24.000000" fill="white" fill-opacity="0"/>
		</clipPath>
	</defs>
	<g clip-path="url(#clip3_2177)">
		<path id="Vector" d="M0 12.1094C0 5.45508 3.60449 1.41797 9.50293 1.41797C13.9814 1.41797 17.5859 4.14453 18.2412 8.18164C18.3506 8.61719 18.0234 8.94531 17.5859 8.94531L14.7461 8.94531C14.4189 8.94531 14.2002 8.72656 14.0908 8.40039C13.5449 6.32617 11.7969 5.01758 9.50293 5.01758C6.33496 5.01758 4.36914 7.74609 4.36914 12.1094C4.36914 16.4727 6.33496 19.1992 9.6123 19.1992C11.9062 19.1992 13.5449 18 14.2002 16.0371C14.3096 15.709 14.5273 15.4902 14.8555 15.4902L17.6953 15.4902C18.1318 15.4902 18.46 15.9277 18.3506 16.2539C17.6953 20.1816 14.2002 22.7988 9.6123 22.7988C3.60449 22.7988 0 18.6543 0 12.1094ZM86.292 21.4922L86.292 6C86.292 5.67383 86.0742 5.45508 85.7461 5.45508L80.9404 5.45508C80.5029 5.45508 80.0664 5.12695 80.0664 4.58203L80.0664 2.72852C80.0664 2.29102 80.3936 1.85547 80.9404 1.85547L95.7959 1.85547C96.2324 1.85547 96.6689 2.18164 96.6689 2.72852L96.6689 4.58203C96.6689 5.01953 96.3418 5.45508 95.7959 5.45508L90.9893 5.45508C90.6621 5.45508 90.4434 5.67383 90.4434 6L90.4434 21.5996C90.4434 22.0371 90.1152 22.3633 89.6787 22.3633L86.9482 22.3633C86.6201 22.2559 86.292 21.9277 86.292 21.4922ZM23.375 22.2539L26.543 22.2539C26.8701 22.2539 27.1982 22.0371 27.0889 21.8184L27.0889 15.3828C27.0889 15.0547 27.3076 14.8359 27.6348 14.8359L30.1475 14.8359C30.4746 14.8359 30.8027 14.9453 30.9121 15.2734L34.0801 21.8184C34.1885 22.0371 34.4072 22.1465 34.626 22.1465L38.2305 22.1465C38.5586 22.1465 38.8857 21.709 38.667 21.3828L35.2812 14.9453C35.0625 14.6191 35.1719 14.0723 35.6094 13.8555C37.4658 12.7637 38.5586 10.6914 38.5586 8.40039C38.5586 4.47266 35.8271 1.96289 31.3486 1.96289L23.7031 1.96289C23.2656 1.96289 22.8291 2.40039 22.8291 2.83594L22.8291 21.709C22.8291 22.0371 23.0479 22.2539 23.375 22.2539ZM56.2539 22.2539L44.2383 22.2539C43.8018 22.2539 43.4736 21.9277 43.4736 21.4902L43.4736 2.72656C43.4736 2.29102 43.8018 1.96289 44.2383 1.96289L56.2539 1.96289C56.6904 1.96289 57.0186 2.29102 57.0186 2.72656L57.0186 4.80078C57.0186 5.23633 56.6904 5.56445 56.2539 5.56445L48.2803 5.56445C47.9521 5.56445 47.7334 5.78125 47.7334 6.10938L47.7334 9.81836C47.7334 10.1465 47.9521 10.3633 48.2803 10.3633L55.708 10.3633C56.1445 10.3633 56.4717 10.6914 56.4717 11.127L56.4717 12.9824C56.4717 13.418 56.1445 13.7461 55.708 13.7461L48.2803 13.7461C47.9521 13.7461 47.7334 13.9629 47.7334 14.291L47.7334 18.4355C47.7334 18.7637 47.9521 18.9824 48.2803 18.9824L56.2539 18.9824C56.6904 18.9824 57.0186 19.3086 57.0186 19.7461L57.0186 21.8184C57.0186 21.9277 56.6904 22.2539 56.2539 22.2539ZM66.958 17.3457L73.1846 17.3457C73.4033 17.3457 73.7305 17.5645 73.7305 17.7812L74.9326 21.8184C75.041 22.0371 75.2598 22.2539 75.5879 22.2539L78.7549 22.2539C79.1924 22.2539 79.5195 21.8184 79.4111 21.3828L72.8564 2.40039C72.748 2.18164 72.5293 1.96289 72.2012 1.96289L68.1602 1.96289C67.832 1.96289 67.6143 2.18164 67.5049 2.40039L60.9512 21.3828C60.8418 21.8184 61.1689 22.2539 61.6064 22.2539L64.4463 22.2539C64.7734 22.2539 64.9922 22.1465 65.1016 21.8184L66.3027 17.7812C66.4121 17.5645 66.6309 17.3457 66.958 17.3457ZM101.366 22.2539L113.382 22.2539C113.818 22.2539 114.146 21.9277 114.146 21.8184L114.146 19.7461C114.146 19.3086 113.818 18.9824 113.382 18.9824L105.407 18.9824C105.08 18.9824 104.861 18.7637 104.861 18.4355L104.861 14.291C104.861 13.9629 105.08 13.7461 105.407 13.7461L112.835 13.7461C113.272 13.7461 113.6 13.418 113.6 12.9824L113.6 11.127C113.6 10.6914 113.272 10.3633 112.835 10.3633L105.407 10.3633C105.08 10.3633 104.861 10.1465 104.861 9.81836L104.861 6.10938C104.861 5.78125 105.08 5.56445 105.407 5.56445L113.382 5.56445C113.818 5.56445 114.146 5.23633 114.146 4.80078L114.146 2.72656C114.146 2.29102 113.818 1.96289 113.382 1.96289L101.366 1.96289C100.929 1.96289 100.602 2.29102 100.602 2.72656L100.602 21.4902C100.602 21.9277 100.929 22.2539 101.366 22.2539ZM27.7441 11.6719C27.417 11.6719 27.1982 11.4551 27.1982 11.127L27.3076 11.127L27.3076 5.89062C27.3076 5.56445 27.5254 5.3457 27.8535 5.3457L31.0215 5.3457C33.0967 5.3457 34.4072 6.54492 34.4072 8.50977C34.4072 10.4727 33.2061 11.6719 31.0215 11.6719L27.7441 11.6719ZM72.3105 14.1816L67.832 14.1816C67.6143 14.1816 67.5049 13.9629 67.6143 13.7461L70.0166 6.10938L70.2354 6.10938L72.6387 13.7461C72.6387 13.9629 72.5293 14.1816 72.3105 14.1816Z" fill="#FFFFFF" fill-opacity="1.000000" fill-rule="evenodd"/>
		<path id="Vector" d="M121.792 1.74609L128.564 10.582C129.329 11.4551 129.329 12.7637 128.564 13.4199L121.792 22.2559C121.355 22.6914 120.809 22.9102 120.263 22.9102C119.717 22.9102 119.171 22.6914 118.733 22.2559C117.969 21.3828 117.969 20.0742 118.733 19.2012L124.086 12L118.733 4.80078C117.969 3.92773 117.969 2.61914 118.733 1.74609C119.171 1.31055 119.717 1.0918 120.263 1.0918C120.809 1.0918 121.355 1.31055 121.792 1.74609ZM138.224 1.74609L131.451 10.582C130.687 11.4551 130.687 12.7637 131.451 13.4199L138.224 22.2559C138.66 22.6914 139.206 22.9102 139.753 22.9102C140.299 22.9102 140.845 22.6914 141.282 22.2559C142.047 21.3828 142.047 20.0742 141.282 19.2012L135.93 12L141.282 4.80078C142.047 3.92773 142.047 2.61914 141.282 1.74609C140.845 1.31055 140.299 1.0918 139.753 1.0918C139.206 1.0918 138.66 1.31055 138.224 1.74609Z" fill="#FF5A30" fill-opacity="1.000000" fill-rule="evenodd"/>
	</g>
</svg>
